<svg width="314" height="114" viewBox="0 0 314 114" fill="none" xmlns="http://www.w3.org/2000/svg">
<path d="M25.4 51.424C26.5093 48.608 27.2773 47.328 27.704 47.584C28.1307 48.096 26.296 53.5147 22.2 63.84C20.2373 68.8747 18.7013 74.08 17.592 79.456C16.6533 83.7227 15.288 88.032 13.496 92.384C11.7893 96.736 10.4667 98.912 9.528 98.912C8.76 98.912 6.88267 96.992 3.896 93.152C1.50667 90.1653 1.03733 88.2027 2.488 87.264C2.91467 87.008 3.512 82.4 4.28 73.44C4.792 67.3813 5.00533 63.456 4.92 61.664C4.92 59.7867 4.62133 58.08 4.024 56.544C3.08533 54.4107 2.616 53.088 2.616 52.576C2.616 51.9787 3.17067 51.68 4.28 51.68C5.38933 51.68 7.01067 52.9173 9.144 55.392L12.472 58.848L11.96 65.632C11.5333 70.0693 11.1493 73.3973 10.808 75.616C10.3813 77.8347 10.3813 78.9013 10.808 78.816C11.576 78.6453 15.288 71.9467 21.944 58.72C22.968 56.672 24.12 54.24 25.4 51.424ZM11.064 15.456C11.7467 14.8587 13.1973 14.944 15.416 15.712C17.2933 16.3947 18.8293 17.4613 20.024 18.912C21.2187 20.2773 21.816 21.6427 21.816 23.008C21.816 24.288 21.3893 25.44 20.536 26.464C19.6827 27.488 17.8053 29.024 14.904 31.072C12.5147 32.7787 11.32 33.888 11.32 34.4C11.32 34.8267 10.8933 35.04 10.04 35.04C9.18667 35.04 9.61333 33.2053 11.32 29.536C12.6 26.72 13.24 24.544 13.24 23.008C13.3253 21.3867 12.8133 19.6373 11.704 17.76C10.8507 16.6507 10.6373 15.8827 11.064 15.456ZM57.784 14.048C62.904 14.048 66.0187 16.1387 67.128 20.32C67.64 22.112 68.6213 23.0507 70.072 23.136C71.9493 23.3067 73.9973 23.648 76.216 24.16C78.4347 24.672 79.7573 25.0987 80.184 25.44C81.1227 26.208 81.464 27.1467 81.208 28.256C81.0373 29.28 80.44 29.92 79.416 30.176L71.736 31.968C68.7493 32.6507 66.7013 33.4613 65.592 34.4C64.568 35.2533 63.032 37.5147 60.984 41.184L58.296 45.792L60.472 45.152C68.152 42.848 73.8267 42.1227 77.496 42.976C81.08 43.8293 83.512 45.3653 84.792 47.584C86.072 49.8027 86.9253 53.8133 87.352 59.616C87.5227 62.688 87.48 65.248 87.224 67.296C86.968 69.344 86.3707 72.2027 85.432 75.872C83.7253 82.1867 82.0613 86.7947 80.44 89.696C78.904 92.512 76.6853 94.944 73.784 96.992C71.3093 98.6133 69.4747 99.552 68.28 99.808C67.1707 100.064 64.6533 100.192 60.728 100.192C56.632 100.192 54.1147 100.107 53.176 99.936C52.3227 99.68 51.128 98.784 49.592 97.248C47.544 95.2853 46.264 93.4507 45.752 91.744C45.496 90.6347 45.1547 89.9093 44.728 89.568C44.3867 89.1413 43.7467 88.9707 42.808 89.056C34.104 89.824 29.752 88.7147 29.752 85.728C29.752 84.0213 30.7333 81.504 32.696 78.176C34.744 74.848 36.28 73.1413 37.304 73.056C38.328 73.056 40.4613 73.0133 43.704 72.928C46.1787 72.7573 47.7147 72.5013 48.312 72.16C48.9093 71.8187 49.6347 70.6667 50.488 68.704C52.6213 64.352 53.1333 61.92 52.024 61.408C51.9387 61.3227 51.8107 61.28 51.64 61.28C51.0427 61.28 49.6773 61.9627 47.544 63.328C46.008 64.1813 45.0267 64.6507 44.6 64.736C44.2587 64.736 43.7893 64.3093 43.192 63.456C42.3387 62.3467 41.912 61.0667 41.912 59.616C41.912 58.1653 41.7413 56.8 41.4 55.52C41.0587 54.1547 41.8693 52.576 43.832 50.784L46.776 48.096L44.088 48.736C42.9787 48.9067 42.1253 48.9067 41.528 48.736C40.9307 48.5653 40.2907 47.968 39.608 46.944C38.4133 45.408 37.3893 44.64 36.536 44.64C35.768 44.64 34.5733 43.872 32.952 42.336C31.416 40.8 30.648 39.6907 30.648 39.008C30.648 38.24 31.0747 37.6853 31.928 37.344C32.8667 37.0027 33.336 34.5707 33.336 30.048C33.336 27.0613 33.4213 25.0133 33.592 23.904C33.848 22.7947 34.4027 21.6853 35.256 20.576C36.1093 19.552 36.7493 18.9547 37.176 18.784C37.688 18.6133 38.3707 18.7413 39.224 19.168C40.504 19.8507 41.144 20.7467 41.144 21.856C41.144 22.9653 41.8693 24.928 43.32 27.744C44.7707 30.4747 45.496 32.224 45.496 32.992C45.496 34.3573 48.056 33.76 53.176 31.2C53.2613 31.1147 53.3467 31.072 53.432 31.072C55.0533 30.2187 56.1627 29.4933 56.76 28.896C57.4427 28.2133 57.8693 27.3173 58.04 26.208C58.6373 23.3067 58.7653 21.216 58.424 19.936C58.168 18.656 57.3573 17.5893 55.992 16.736C54.2 15.7973 53.304 15.1147 53.304 14.688C53.304 14.2613 54.7973 14.048 57.784 14.048ZM46.648 46.048C46.392 46.9867 46.392 47.328 46.648 47.072C46.7333 46.9867 46.8613 46.9013 47.032 46.816C47.7147 46.2187 48.2267 45.28 48.568 44C48.9093 42.6347 48.7813 41.952 48.184 41.952C47.5867 41.952 47.288 42.3787 47.288 43.232C47.288 44.0853 47.0747 45.024 46.648 46.048ZM75.96 50.656C75.0213 50.0587 73.9547 49.9307 72.76 50.272C71.5653 50.6133 68.9627 51.7653 64.952 53.728C62.904 54.752 61.496 55.5627 60.728 56.16C59.96 56.672 59.7467 57.2267 60.088 57.824C61.1973 60.5547 61.752 62.9013 61.752 64.864C61.752 66.7413 61.1547 69.1733 59.96 72.16C59.704 72.672 59.7467 73.1413 60.088 73.568C60.5147 73.9093 61.2827 74.3787 62.392 74.976C64.0987 75.6587 65.4213 76.5547 66.36 77.664C67.2987 78.688 67.7253 79.6693 67.64 80.608C67.64 81.5467 67.0853 82.272 65.976 82.784C65.1227 83.04 63.1173 82.7413 59.96 81.888C57.7413 81.2907 56.248 80.992 55.48 80.992C54.7973 80.992 53.8587 81.2907 52.664 81.888C50.5307 83.0827 49.08 84.064 48.312 84.832C47.6293 85.6 47.4587 86.3253 47.8 87.008C48.568 88.288 50.3173 90.0373 53.048 92.256C55.7787 94.4747 57.6133 95.584 58.552 95.584C61.112 95.584 64.0133 94.2187 67.256 91.488C70.4987 88.7573 72.8453 85.6853 74.296 82.272C75.832 78.944 76.984 74.5067 77.752 68.96C78.52 63.4133 78.6053 59.1893 78.008 56.288C77.3253 53.0453 76.6427 51.168 75.96 50.656ZM40.12 78.56C38.84 77.792 37.6453 77.792 36.536 78.56C35.4267 79.2427 34.872 80.3947 34.872 82.016C34.872 84.2347 35.8107 84.6613 37.688 83.296C38.2 82.9547 38.7547 82.4427 39.352 81.76C40.12 80.8213 40.5467 80.1813 40.632 79.84C40.7173 79.4133 40.5467 78.9867 40.12 78.56ZM120.17 43.36C120.426 43.1893 120.639 43.104 120.81 43.104C120.981 43.0187 121.279 43.232 121.706 43.744C122.133 44.1707 122.645 44.8107 123.242 45.664C123.839 46.432 124.607 47.5413 125.546 48.992C127.167 51.296 128.149 52.96 128.49 53.984C128.831 54.9227 128.874 56.16 128.618 57.696C128.277 60 128.277 61.152 128.618 61.152C129.045 61.152 130.282 59.0613 132.33 54.88C133.781 51.6373 134.677 50.016 135.018 50.016C135.103 50.1013 135.061 50.6987 134.89 51.808C134.549 53.9413 133.653 56.416 132.202 59.232C130.751 61.9627 129.557 66.5707 128.618 73.056C127.679 79.456 126.954 83.168 126.442 84.192C125.93 85.1307 125.674 86.752 125.674 89.056C125.674 91.2747 125.247 92.9387 124.394 94.048C123.797 94.9013 123.37 95.328 123.114 95.328C122.858 95.328 122.303 94.944 121.45 94.176C120.341 93.152 119.018 91.232 117.482 88.416C116.373 86.368 115.775 85.0453 115.69 84.448C115.605 83.7653 115.861 82.8267 116.458 81.632C117.311 80.0107 117.738 78.1333 117.738 76C117.738 73.8667 118.207 69.344 119.146 62.432C120.085 55.4347 120.383 50.6133 120.042 47.968C119.701 45.3227 119.743 43.7867 120.17 43.36ZM189.034 14.176C190.229 13.408 191.167 13.024 191.85 13.024C192.533 13.024 193.557 13.408 194.922 14.176C196.373 15.1147 197.695 15.584 198.89 15.584C200.255 15.584 201.493 16.1813 202.602 17.376C203.711 18.5707 204.138 19.68 203.882 20.704C203.711 21.6427 202.986 22.3253 201.706 22.752C200.511 23.0933 197.823 23.4773 193.642 23.904C185.877 24.672 179.562 26.8907 174.698 30.56C171.199 33.12 167.957 36.2773 164.97 40.032C162.069 43.7013 161.045 45.9627 161.898 46.816C162.154 46.9867 163.818 47.1573 166.89 47.328L171.626 47.456L174.058 41.952C175.594 38.1973 176.917 35.936 178.026 35.168C179.135 34.3147 180.97 34.3573 183.53 35.296C185.578 36.064 187.285 37.088 188.65 38.368C190.015 39.648 190.485 40.7573 190.058 41.696C189.631 42.8053 188.991 49.0347 188.138 60.384C187.285 71.648 186.73 80.2667 186.474 86.24C186.389 93.3227 186.005 97.4187 185.322 98.528C184.213 100.576 182.293 101.429 179.562 101.088C176.831 100.661 174.101 99.2533 171.37 96.864C170.09 95.584 168.085 94.6027 165.354 93.92L161.258 93.024L165.482 92.384C172.65 91.4453 176.831 89.7387 178.026 87.264C178.794 85.8133 179.306 77.664 179.562 62.816L180.202 40.544L174.186 52.32C169.151 62.048 165.994 68.0213 164.714 70.24C163.434 72.3733 162.495 73.44 161.898 73.44C161.215 73.44 160.234 72.2027 158.954 69.728C157.759 67.168 157.162 65.2907 157.162 64.096C157.162 62.56 156.309 62.4747 154.602 63.84C154.175 64.096 153.706 64.48 153.194 64.992C149.183 69.4293 146.538 67.68 145.258 59.744C145.087 58.6347 145.087 57.7813 145.258 57.184C145.514 56.5013 146.111 55.776 147.05 55.008C148.501 53.6427 150.634 50.8693 153.45 46.688C156.266 42.5067 159.679 38.8373 163.69 35.68C167.701 32.4373 170.517 30.1333 172.138 28.768L174.314 26.72L171.498 27.36C169.706 27.616 165.823 28.9387 159.85 31.328C155.071 33.2053 151.658 34.3147 149.61 34.656C147.562 34.9973 145.813 34.6133 144.362 33.504C143.338 32.736 142.314 32.352 141.29 32.352C140.266 32.2667 139.754 31.7973 139.754 30.944C139.754 29.408 141.93 28.64 146.282 28.64C148.415 28.64 155.583 26.592 167.786 22.496C180.074 18.3147 187.157 15.5413 189.034 14.176ZM121.322 14.048C121.322 12.768 122.602 12.7253 125.162 13.92C125.503 14.0907 125.973 14.3467 126.57 14.688C128.447 15.6267 130.069 17.0347 131.434 18.912C132.799 20.7893 133.482 22.496 133.482 24.032C133.482 25.1413 132.629 26.3787 130.922 27.744C129.215 29.1093 127.295 30.176 125.162 30.944C123.455 31.5413 122.517 31.712 122.346 31.456C122.261 31.1147 122.645 29.792 123.498 27.488C125.29 22.368 125.162 18.8267 123.114 16.864C121.919 15.7547 121.322 14.816 121.322 14.048ZM252.7 57.184C254.321 52.4053 255.516 51.68 256.284 55.008C257.137 58.6773 255.431 64.864 251.164 73.568C249.201 77.408 246.769 80.2667 243.868 82.144C240.967 84.0213 238.833 84.064 237.468 82.272C237.041 81.76 237.041 81.12 237.468 80.352C237.895 79.4987 239.004 78.1333 240.796 76.256C246.599 69.9413 250.567 63.584 252.7 57.184ZM270.492 46.816C270.492 45.1947 272.668 45.28 277.02 47.072C278.385 47.6693 279.836 48.352 281.372 49.12L287.26 52.704L291.868 50.912C294.855 49.888 297.543 49.5467 299.932 49.888C306.076 50.8267 309.148 51.9787 309.148 53.344C309.148 54.112 308.679 54.9653 307.74 55.904C306.801 56.8427 305.82 57.312 304.796 57.312C303.857 57.312 303.089 57.568 302.492 58.08C301.98 58.5067 299.249 59.232 294.3 60.256C289.351 61.1947 286.663 61.8773 286.236 62.304C285.895 62.6453 285.255 64.3947 284.316 67.552L282.908 72.16H285.98C287.857 72.16 289.948 72.7147 292.252 73.824C294.641 74.9333 296.049 76 296.476 77.024C296.732 77.9627 295.623 80.48 293.148 84.576C290.673 88.5867 288.455 91.36 286.492 92.896C285.553 93.5787 285.425 94.304 286.108 95.072C286.876 95.7547 289.649 95.7973 294.428 95.2C299.292 94.5173 302.023 94.432 302.62 94.944C303.217 95.3707 304.54 95.9253 306.588 96.608C310.599 97.9733 312.775 99.6373 313.116 101.6C313.201 102.88 312.305 103.776 310.428 104.288C309.063 104.544 305.223 104.544 298.908 104.288C291.74 103.947 283.889 104.459 275.356 105.824C266.823 107.189 261.617 108.768 259.74 110.56C258.46 111.669 257.137 112.608 255.772 113.376C254.919 113.717 254.279 113.845 253.852 113.76C253.511 113.76 253.084 113.376 252.572 112.608C251.633 111.328 250.823 108.768 250.14 104.928C249.799 102.795 250.055 101.429 250.908 100.832C251.761 100.149 253.852 99.808 257.18 99.808C259.569 99.808 261.404 99.6373 262.684 99.296C263.964 98.9547 265.372 98.3147 266.908 97.376C268.529 96.2667 269.511 95.4133 269.852 94.816C270.279 94.1333 270.492 93.152 270.492 91.872C270.492 89.9093 269.852 88.416 268.572 87.392C267.292 86.368 265.927 86.24 264.476 87.008C263.025 87.776 261.788 87.904 260.764 87.392C259.74 86.88 259.228 85.7707 259.228 84.064C259.313 80.5653 260.721 78.688 263.452 78.432C264.732 78.3467 266.993 78.0053 270.236 77.408C272.625 76.9813 273.991 76.5547 274.332 76.128C274.759 75.7013 274.972 74.72 274.972 73.184C274.972 70.7093 274.673 69.1733 274.076 68.576C273.479 67.9787 272.284 68.1067 270.492 68.96C267.676 70.0693 265.287 70.2827 263.324 69.6C261.361 68.9173 260.039 67.4667 259.356 65.248C258.673 62.944 258.375 61.6213 258.46 61.28C258.631 60.9387 259.484 60.9387 261.02 61.28C262.727 61.6213 265.372 61.1093 268.956 59.744C271.26 58.8053 272.668 58.08 273.18 57.568C273.777 57.056 274.076 56.2027 274.076 55.008C274.076 53.3013 273.479 51.7227 272.284 50.272C271.089 48.736 270.492 47.584 270.492 46.816ZM274.46 5.34399C278.897 3.12533 282.055 1.75999 283.932 1.24799C285.895 0.650663 287.857 0.351997 289.82 0.351997C292.465 0.351997 295.281 0.949331 298.268 2.144C301.34 3.25333 303.644 4.61867 305.18 6.24C305.863 7.09333 306.161 7.98933 306.076 8.92799C306.076 9.86666 305.564 12.3413 304.54 16.352C303.345 20.704 301.895 24.4587 300.188 27.616C298.481 30.688 296.689 32.6933 294.812 33.632C293.532 34.3147 292.252 35.2107 290.972 36.32C289.777 37.4293 286.065 38.5813 279.836 39.776C274.033 40.7147 270.151 41.2267 268.188 41.312C266.311 41.3973 265.116 40.9707 264.604 40.032C264.177 39.0933 263.025 38.5813 261.148 38.496C259.527 38.3253 258.503 38.0267 258.076 37.6C257.649 37.1733 256.54 35.2107 254.748 31.712C253.895 29.8347 253.127 27.7867 252.444 25.568C251.847 23.264 251.463 21.472 251.292 20.192C251.207 18.8267 251.377 18.0587 251.804 17.888C252.316 17.888 253.937 19.2107 256.668 21.856C258.375 23.4773 259.569 24.5013 260.252 24.928C261.02 25.2693 261.66 25.2693 262.172 24.928C262.94 24.2453 263.495 24.0747 263.836 24.416C264.177 24.7573 266.652 24.1173 271.26 22.496C274.332 21.5573 276.508 21.0027 277.788 20.832C279.153 20.6613 280.647 20.7467 282.268 21.088C284.231 21.6 285.468 21.7707 285.98 21.6C286.577 21.4293 287.217 20.7893 287.9 19.68C289.607 17.2907 290.716 14.6453 291.228 11.744C291.825 8.84266 291.569 7.17867 290.46 6.752C289.607 6.496 288.071 6.96533 285.852 8.16C283.633 9.26933 281.415 10.7627 279.196 12.64C277.063 14.432 274.332 15.712 271.004 16.48C267.335 17.4187 264.519 17.5893 262.556 16.992C260.679 16.3947 259.1 14.944 257.82 12.64C257.308 11.4453 257.137 10.7627 257.308 10.592C257.564 10.4213 258.588 10.336 260.38 10.336C262.855 10.336 267.548 8.672 274.46 5.34399ZM282.78 30.816C280.903 29.1947 276.764 28.896 270.364 29.92L267.804 30.176L271.004 32.352C272.369 33.2907 273.436 33.888 274.204 34.144C275.057 34.3147 276.295 34.272 277.916 34.016C281.927 33.3333 283.975 32.7787 284.06 32.352C284.06 32.096 283.633 31.584 282.78 30.816Z" fill="#525252"/>
</svg>
