<svg width="89" height="46" viewBox="0 0 89 46" fill="none" xmlns="http://www.w3.org/2000/svg">
<path d="M5.504 45.352C4.05333 45.3947 2.90133 44.3493 2.048 42.216C1.23733 40.0827 0.832 36.8827 0.832 32.616C0.832 30.184 1.024 27.4747 1.408 24.488C1.83467 21.4587 2.45333 18.1307 3.264 14.504C5.35467 4.86133 7.872 0.0399971 10.816 0.0399971C11.968 0.0399971 12.8 1.08533 13.312 3.176C13.696 4.75467 13.824 6.184 13.696 7.464C13.2693 11.6027 10.816 17.2773 6.336 24.488C6.03733 24.8293 5.67467 25.2773 5.248 25.832C4.864 26.3867 4.39467 27.048 3.84 27.816C3.75467 28.7973 3.66933 29.7573 3.584 30.696C3.54133 31.6347 3.52 32.5307 3.52 33.384C3.52 34.92 3.648 36.4987 3.904 38.12C4.37333 40.6373 5.07733 41.896 6.016 41.896C6.912 41.896 7.808 41.32 8.704 40.168L10.56 37.16C10.7733 36.8187 11.0507 36.648 11.392 36.648C11.8187 36.648 12.032 36.8613 12.032 37.288C12.032 37.3733 12.0107 37.4587 11.968 37.544C11.968 37.6293 11.9467 37.7147 11.904 37.8C11.4347 38.8667 11.008 39.784 10.624 40.552C10.2827 41.2773 9.96267 41.8533 9.664 42.28C8.34133 44.328 6.95467 45.352 5.504 45.352ZM10.752 3.24C7.808 4.52 5.61067 11.56 4.16 24.36C4.288 24.232 4.48 23.976 4.736 23.592C9.472 16.8507 11.84 11.4747 11.84 7.464C11.84 7.16533 11.8187 6.84533 11.776 6.504C11.7333 6.12 11.6693 5.69333 11.584 5.224C11.328 4.072 11.0507 3.41066 10.752 3.24ZM19.25 42.344C17.3727 42.344 15.8367 41.768 14.642 40.616C13.49 39.464 12.914 37.9067 12.914 35.944C12.914 35.5173 12.9353 35.0907 12.978 34.664C13.0633 34.2373 13.1487 33.8107 13.234 33.384C13.7033 31.5493 15.0047 29.5867 17.138 27.496C19.5273 25.2347 21.5967 24.104 23.346 24.104C24.7967 24.104 25.4793 24.9147 25.394 26.536C25.3513 28.6267 24.1993 30.6747 21.938 32.68C20.9567 33.4907 19.9327 34.2373 18.866 34.92C17.842 35.6027 16.754 35.944 15.602 35.944H15.538C15.666 38.7173 17.0953 40.104 19.826 40.104C20.722 40.104 21.7247 39.8907 22.834 39.464C22.9193 39.4213 23.0473 39.4 23.218 39.4C23.7727 39.4 24.05 39.6773 24.05 40.232C24.05 40.616 23.858 40.9147 23.474 41.128C22.2793 41.9387 20.8713 42.344 19.25 42.344ZM17.266 32.936C18.5887 32.6373 19.7193 32.0827 20.658 31.272C22.322 29.864 23.154 28.52 23.154 27.24V27.112C23.154 26.8133 23.0473 26.5787 22.834 26.408C22.6207 26.2373 22.4713 26.1947 22.386 26.28C21.0633 26.28 19.6553 27.24 18.162 29.16C17.9487 29.4587 17.6927 29.864 17.394 30.376C17.0953 30.8453 16.7753 31.4213 16.434 32.104C16.3913 32.1893 16.37 32.2747 16.37 32.36C16.37 32.744 16.6687 32.936 17.266 32.936ZM34.3125 42.344C32.4352 42.344 30.8992 41.768 29.7045 40.616C28.5525 39.464 27.9765 37.9067 27.9765 35.944C27.9765 35.5173 27.9978 35.0907 28.0405 34.664C28.1258 34.2373 28.2112 33.8107 28.2965 33.384C28.7658 31.5493 30.0672 29.5867 32.2005 27.496C34.5898 25.2347 36.6592 24.104 38.4085 24.104C39.8592 24.104 40.5418 24.9147 40.4565 26.536C40.4138 28.6267 39.2618 30.6747 37.0005 32.68C36.0192 33.4907 34.9952 34.2373 33.9285 34.92C32.9045 35.6027 31.8165 35.944 30.6645 35.944H30.6005C30.7285 38.7173 32.1578 40.104 34.8885 40.104C35.7845 40.104 36.7872 39.8907 37.8965 39.464C37.9818 39.4213 38.1098 39.4 38.2805 39.4C38.8352 39.4 39.1125 39.6773 39.1125 40.232C39.1125 40.616 38.9205 40.9147 38.5365 41.128C37.3418 41.9387 35.9338 42.344 34.3125 42.344ZM32.3285 32.936C33.6512 32.6373 34.7818 32.0827 35.7205 31.272C37.3845 29.864 38.2165 28.52 38.2165 27.24V27.112C38.2165 26.8133 38.1098 26.5787 37.8965 26.408C37.6832 26.2373 37.5338 26.1947 37.4485 26.28C36.1258 26.28 34.7178 27.24 33.2245 29.16C33.0112 29.4587 32.7552 29.864 32.4565 30.376C32.1578 30.8453 31.8378 31.4213 31.4965 32.104C31.4538 32.1893 31.4325 32.2747 31.4325 32.36C31.4325 32.744 31.7312 32.936 32.3285 32.936ZM56.991 42.472C55.7537 42.472 54.7297 41.6827 53.919 40.104C53.7057 39.6347 53.5137 39.0587 53.343 38.376C53.1723 37.6507 53.0017 36.8187 52.831 35.88C52.575 34.3867 52.3617 33.6613 52.191 33.704C51.6363 33.7893 50.9537 34.3013 50.143 35.24L45.279 40.936C44.9377 41.2773 44.5963 41.448 44.255 41.448C43.7003 41.448 43.359 41.064 43.231 40.296C43.1883 39.9547 43.1457 39.592 43.103 39.208C43.103 38.7813 43.103 38.3333 43.103 37.864C43.103 35.1333 43.423 31.8267 44.063 27.944C44.1483 27.3467 44.4897 27.048 45.087 27.048C45.6417 27.048 45.919 27.3467 45.919 27.944C45.8763 28.8827 45.8123 30.0133 45.727 31.336C45.6843 32.616 45.6417 34.1093 45.599 35.816C45.6843 35.9013 45.7697 35.944 45.855 35.944C47.0923 35.944 49.631 33.1493 53.471 27.56C53.6843 27.304 54.0257 27.176 54.495 27.176C55.5617 27.176 56.0097 27.6453 55.839 28.584C55.199 31.4 54.879 33.448 54.879 34.728C54.879 35.496 55.0497 36.4987 55.391 37.736C55.8603 39.272 56.4363 40.04 57.119 40.04C58.655 40.04 60.3403 37.8 62.175 33.32C62.6443 32.0827 62.9643 30.8027 63.135 29.48C62.6657 29.1387 62.431 28.392 62.431 27.24C62.431 26.088 62.815 25.512 63.583 25.512C64.0097 25.512 64.5217 25.7253 65.119 26.152C65.759 26.5787 66.2497 27.176 66.591 27.944H66.655C66.783 28.2427 66.847 28.5413 66.847 28.84C66.847 29.5653 66.591 29.9707 66.079 30.056L65.247 29.928C65.0337 30.3973 64.7563 31.0373 64.415 31.848C64.0737 32.6587 63.6683 33.6613 63.199 34.856C61.407 39.9333 59.3377 42.472 56.991 42.472ZM74.875 42.344C72.9977 42.344 71.4617 41.768 70.267 40.616C69.115 39.464 68.539 37.9067 68.539 35.944C68.539 35.5173 68.5603 35.0907 68.603 34.664C68.6883 34.2373 68.7737 33.8107 68.859 33.384C69.3283 31.5493 70.6297 29.5867 72.763 27.496C75.1523 25.2347 77.2217 24.104 78.971 24.104C80.4217 24.104 81.1043 24.9147 81.019 26.536C80.9763 28.6267 79.8243 30.6747 77.563 32.68C76.5817 33.4907 75.5577 34.2373 74.491 34.92C73.467 35.6027 72.379 35.944 71.227 35.944H71.163C71.291 38.7173 72.7203 40.104 75.451 40.104C76.347 40.104 77.3497 39.8907 78.459 39.464C78.5443 39.4213 78.6723 39.4 78.843 39.4C79.3977 39.4 79.675 39.6773 79.675 40.232C79.675 40.616 79.483 40.9147 79.099 41.128C77.9043 41.9387 76.4963 42.344 74.875 42.344ZM72.891 32.936C74.2137 32.6373 75.3443 32.0827 76.283 31.272C77.947 29.864 78.779 28.52 78.779 27.24V27.112C78.779 26.8133 78.6723 26.5787 78.459 26.408C78.2457 26.2373 78.0963 26.1947 78.011 26.28C76.6883 26.28 75.2803 27.24 73.787 29.16C73.5737 29.4587 73.3177 29.864 73.019 30.376C72.7203 30.8453 72.4003 31.4213 72.059 32.104C72.0163 32.1893 71.995 32.2747 71.995 32.36C71.995 32.744 72.2937 32.936 72.891 32.936ZM86.8015 19.816C86.1615 19.816 85.8628 19.432 85.9055 18.664L86.5455 16.232C86.6735 15.7627 86.9722 15.528 87.4415 15.528C88.4228 15.528 88.8282 15.9333 88.6575 16.744C88.6148 17.3413 88.4655 18.0027 88.2095 18.728C87.9535 19.4533 87.4842 19.816 86.8015 19.816ZM84.5615 39.976C84.1775 39.976 83.9215 39.8053 83.7935 39.464C83.6228 38.9947 83.5162 38.4187 83.4735 37.736C83.4308 37.0533 83.4308 36.2853 83.4735 35.432C83.5588 34.4507 83.7935 33.2133 84.1775 31.72C84.6042 30.2267 85.1802 28.4987 85.9055 26.536C86.0762 26.1093 86.3748 25.896 86.8015 25.896C87.6122 25.896 87.8895 26.2587 87.6335 26.984C87.4628 27.5387 87.3135 28.0933 87.1855 28.648C87.0575 29.2027 86.9295 29.7573 86.8015 30.312C86.5882 31.2933 86.4175 32.168 86.2895 32.936C86.1615 33.704 86.0975 34.3867 86.0975 34.984C86.0975 37.0747 86.1188 38.1627 86.1615 38.248C86.2895 38.6747 86.1615 39.08 85.7775 39.464C85.3935 39.8053 84.9882 39.976 84.5615 39.976Z" fill="black"/>
</svg>
